# xmcd CD database file
#
# Track frame offsets:
#	150
#	17569
#	32311
#	45286
#	66605
#	80057
#	101146
#	123111
#	143005
#	158859
#	180759
#
# Disc length: 2678 seconds
#
# Revision: 0
# Processed by: cddbd v1.5.2PL0 Copyright (c) Steve Scherf et al.
# Submitted via: CDex 1.51
#
DISCID=800a740b
DTITLE=James Talley - American Originals
DYEAR=1985
DGENRE=Country
TTITLE0=Find Somebody and Love Them
TTITLE1=Bury Me in New Orleans 
TTITLE2=Baby, She Loves a Rocker
TTITLE3=Whiskey on the Side
TTITLE4=Are They Gonna Make Us Outlaws Again?
TTITLE5=A Way to Say I Love You
TTITLE6=New York Town
TTITLE7=Open All Night
TTITLE8=Montana Song
TTITLE9=Ready to Please
TTITLE10=We're All One Family (All Over the World)
EXTD=YEAR: 1985
EXTT0=
EXTT1=
EXTT2=
EXTT3=
EXTT4=
EXTT5=
EXTT6=
EXTT7=
EXTT8=
EXTT9=
EXTT10=
PLAYORDER=
